<svg xmlns="http://www.w3.org/2000/svg" viewBox="0 0 460 660" role="img" aria-label="Карточка банкета организатора"><rect width="460" height="660" fill="#f2f4ef"/><rect x="50" y="12" width="360" height="636" rx="26" fill="#fff" stroke="#cfd9cf"/><rect x="50" y="12" width="360" height="78" rx="26" fill="#123127" stroke="#123127"/><rect x="50" y="69" width="360" height="21" rx="0" fill="#123127" stroke="#123127"/><text x="72" y="59" fill="#fff" font-family="Arial,sans-serif" font-size="20" font-weight="700"><tspan x="72" dy="0">За столом</tspan></text><text x="72" y="119" fill="#15372b" font-family="Arial,sans-serif" font-size="18" font-weight="700"><tspan x="72" dy="0">День рождения Александры</tspan></text><rect x="72" y="140" width="149" height="42" rx="13" fill="#f3f6f1" stroke="#dce4dc"/><rect x="230" y="140" width="158" height="42" rx="13" fill="#f3f6f1" stroke="#dce4dc"/><rect x="72" y="190" width="149" height="42" rx="13" fill="#e9f1e8" stroke="#dce4dc"/><rect x="230" y="190" width="158" height="42" rx="13" fill="#f3f6f1" stroke="#dce4dc"/><rect x="72" y="240" width="149" height="42" rx="13" fill="#f3f6f1" stroke="#dce4dc"/><rect x="230" y="240" width="158" height="42" rx="13" fill="#f3f6f1" stroke="#dce4dc"/><text x="115" y="167" fill="#18382c" font-family="Arial,sans-serif" font-size="14" font-weight="400"><tspan x="115" dy="0">Гости</tspan></text><text x="243" y="167" fill="#18382c" font-family="Arial,sans-serif" font-size="13" font-weight="400"><tspan x="243" dy="0">Мой выбор блюд</tspan></text><text x="91" y="217" fill="#246e4c" font-family="Arial,sans-serif" font-size="13" font-weight="700"><tspan x="91" dy="0">Меню банкета</tspan></text><text x="239" y="217" fill="#18382c" font-family="Arial,sans-serif" font-size="13" font-weight="400"><tspan x="239" dy="0">Заказ для кухни</tspan></text><text x="105" y="267" fill="#18382c" font-family="Arial,sans-serif" font-size="13" font-weight="400"><tspan x="105" dy="0">Рассадка</tspan></text><text x="266" y="267" fill="#18382c" font-family="Arial,sans-serif" font-size="13" font-weight="400"><tspan x="266" dy="0">Управление</tspan></text><text x="72" y="321" fill="#15372b" font-family="Arial,sans-serif" font-size="18" font-weight="700"><tspan x="72" dy="0">Меню этого банкета</tspan></text><rect x="72" y="342" width="316" height="48" rx="13" fill="#fff" stroke="#dce4dc"/><text x="99" y="372" fill="#246e4c" font-family="Arial,sans-serif" font-size="14" font-weight="700"><tspan x="99" dy="0">＋  Выбрать из каталога</tspan></text><rect x="72" y="410" width="316" height="83" rx="13" fill="#e9f1e8" stroke="#dce4dc"/><text x="89" y="439" fill="#246e4c" font-family="Arial,sans-serif" font-size="14" font-weight="700"><tspan x="89" dy="0">Позиции общего стола</tspan></text><text x="89" y="465" fill="#66756b" font-family="Arial,sans-serif" font-size="12" font-weight="400"><tspan x="89" dy="0">Состав и итоговая цена видны здесь</tspan></text><rect x="50" y="570" width="360" height="78" rx="0" fill="#fff" stroke="#e1e6df"/><rect x="56" y="579" width="112" height="55" rx="9" fill="#e9f1e8" stroke="#e9f1e8"/><text x="65" y="610" fill="#225b43" font-family="Arial,sans-serif" font-size="11" font-weight="700"><tspan x="65" dy="0">Банкеты</tspan></text><text x="181" y="610" fill="#68786e" font-family="Arial,sans-serif" font-size="11" font-weight="400"><tspan x="181" dy="0">Рестораны</tspan></text><text x="297" y="610" fill="#68786e" font-family="Arial,sans-serif" font-size="11" font-weight="400"><tspan x="297" dy="0">Доступы</tspan></text><ellipse cx="146" cy="161" rx="78" ry="26" fill="none" stroke="#d52b32" stroke-width="4"/><circle cx="219" cy="138" r="15" fill="#d52b32"/><text x="214" y="143" fill="#fff" font-family="Arial,sans-serif" font-size="14" font-weight="700"><tspan x="214" dy="0">1</tspan></text><ellipse cx="147" cy="211" rx="80" ry="26" fill="none" stroke="#d52b32" stroke-width="4"/><circle cx="222" cy="188" r="15" fill="#d52b32"/><text x="217" y="193" fill="#fff" font-family="Arial,sans-serif" font-size="14" font-weight="700"><tspan x="217" dy="0">2</tspan></text><ellipse cx="230" cy="367" rx="157" ry="28" fill="none" stroke="#d52b32" stroke-width="4"/><circle cx="382" cy="342" r="15" fill="#d52b32"/><text x="377" y="347" fill="#fff" font-family="Arial,sans-serif" font-size="14" font-weight="700"><tspan x="377" dy="0">3</tspan></text><ellipse cx="230" cy="452" rx="157" ry="47" fill="none" stroke="#d52b32" stroke-width="4"/><circle cx="382" cy="408" r="15" fill="#d52b32"/><text x="377" y="413" fill="#fff" font-family="Arial,sans-serif" font-size="14" font-weight="700"><tspan x="377" dy="0">4</tspan></text></svg>